REM DIRINDEX 1\2,1\3,1\4,1\5
REM DIRNAME cjc005,folder01,folder02,folder03,folder04
TITLE ""
FILE "P1Q_t_0762-0771.mp3" MP3
  TRACK 01 AUDIO
    TITLE "3:cjc005_3190"
    INDEX 01 00:00:00
  TRACK 02 AUDIO
    TITLE "0:"
    INDEX 01 00:01:13
  TRACK 03 AUDIO
    TITLE "4:cjc005_3191"
    INDEX 01 00:01:38
  TRACK 04 AUDIO
    TITLE "0:"
    INDEX 01 00:02:40
  TRACK 05 AUDIO
    TITLE "5:cjc005_3192"
    INDEX 01 00:02:63
  TRACK 06 AUDIO
    TITLE "0:"
    INDEX 01 00:06:63
  TRACK 07 AUDIO
    TITLE "3:cjc005_3193"
    INDEX 01 00:07:43
  TRACK 08 AUDIO
    TITLE "0:"
    INDEX 01 00:08:50
  TRACK 09 AUDIO
    TITLE "4:cjc005_3194"
    INDEX 01 00:09:06
  TRACK 10 AUDIO
    TITLE "0:"
    INDEX 01 00:10:10
  TRACK 11 AUDIO
    TITLE "5:cjc005_3195"
    INDEX 01 00:10:33
  TRACK 12 AUDIO
    TITLE "0:"
    INDEX 01 00:14:27
  TRACK 13 AUDIO
    TITLE "3:cjc005_3196"
    INDEX 01 00:15:01
  TRACK 14 AUDIO
    TITLE "0:"
    INDEX 01 00:16:18
  TRACK 15 AUDIO
    TITLE "4:cjc005_3197"
    INDEX 01 00:16:40
  TRACK 16 AUDIO
    TITLE "0:"
    INDEX 01 00:17:51
  TRACK 17 AUDIO
    TITLE "5:cjc005_3198"
    INDEX 01 00:17:72
  TRACK 18 AUDIO
    TITLE "0:"
    INDEX 01 00:22:48
  TRACK 19 AUDIO
    TITLE "3:cjc005_3199"
    INDEX 01 00:23:24
  TRACK 20 AUDIO
    TITLE "0:"
    INDEX 01 00:24:41
  TRACK 21 AUDIO
    TITLE "4:cjc005_3200"
    INDEX 01 00:24:67
  TRACK 22 AUDIO
    TITLE "0:"
    INDEX 01 00:26:03
  TRACK 23 AUDIO
    TITLE "5:cjc005_3201"
    INDEX 01 00:26:28
  TRACK 24 AUDIO
    TITLE "0:"
    INDEX 01 00:30:16
  TRACK 25 AUDIO
    TITLE "3:cjc005_3202"
    INDEX 01 00:30:69
  TRACK 26 AUDIO
    TITLE "0:"
    INDEX 01 00:32:23
  TRACK 27 AUDIO
    TITLE "4:cjc005_3203"
    INDEX 01 00:32:52
  TRACK 28 AUDIO
    TITLE "0:"
    INDEX 01 00:33:66
  TRACK 29 AUDIO
    TITLE "5:cjc005_3204"
    INDEX 01 00:34:16
  TRACK 30 AUDIO
    TITLE "0:"
    INDEX 01 00:37:61
  TRACK 31 AUDIO
    TITLE "3:cjc005_3205"
    INDEX 01 00:38:39
  TRACK 32 AUDIO
    TITLE "0:"
    INDEX 01 00:40:21
  TRACK 33 AUDIO
    TITLE "4:cjc005_3206"
    INDEX 01 00:40:44
  TRACK 34 AUDIO
    TITLE "0:"
    INDEX 01 00:41:71
  TRACK 35 AUDIO
    TITLE "5:cjc005_3207"
    INDEX 01 00:42:19
  TRACK 36 AUDIO
    TITLE "0:"
    INDEX 01 00:47:23
  TRACK 37 AUDIO
    TITLE "3:cjc005_3208"
    INDEX 01 00:47:70
  TRACK 38 AUDIO
    TITLE "0:"
    INDEX 01 00:49:16
  TRACK 39 AUDIO
    TITLE "4:cjc005_3209"
    INDEX 01 00:49:41
  TRACK 40 AUDIO
    TITLE "0:"
    INDEX 01 00:50:60
  TRACK 41 AUDIO
    TITLE "5:cjc005_3210"
    INDEX 01 00:51:09
  TRACK 42 AUDIO
    TITLE "0:"
    INDEX 01 00:55:03
  TRACK 43 AUDIO
    TITLE "3:cjc005_3211"
    INDEX 01 00:55:55
  TRACK 44 AUDIO
    TITLE "0:"
    INDEX 01 00:57:05
  TRACK 45 AUDIO
    TITLE "4:cjc005_3212"
    INDEX 01 00:57:37
  TRACK 46 AUDIO
    TITLE "0:"
    INDEX 01 00:59:00
  TRACK 47 AUDIO
    TITLE "5:cjc005_3213"
    INDEX 01 00:59:24
  TRACK 48 AUDIO
    TITLE "0:"
    INDEX 01 01:04:17
  TRACK 49 AUDIO
    TITLE "3:cjc005_3214"
    INDEX 01 01:05:01
  TRACK 50 AUDIO
    TITLE "0:"
    INDEX 01 01:06:22
  TRACK 51 AUDIO
    TITLE "4:cjc005_3215"
    INDEX 01 01:06:47
  TRACK 52 AUDIO
    TITLE "0:"
    INDEX 01 01:07:66
  TRACK 53 AUDIO
    TITLE "5:cjc005_3216"
    INDEX 01 01:08:13
  TRACK 54 AUDIO
    TITLE "0:"
    INDEX 01 01:13:08
  TRACK 55 AUDIO
    TITLE "3:cjc005_3217"
    INDEX 01 01:13:61
  TRACK 56 AUDIO
    TITLE "0:"
    INDEX 01 01:15:11
  TRACK 57 AUDIO
    TITLE "4:cjc005_3218"
    INDEX 01 01:15:31
  TRACK 58 AUDIO
    TITLE "0:"
    INDEX 01 01:16:46
  TRACK 59 AUDIO
    TITLE "5:cjc005_3219"
    INDEX 01 01:16:65
  TRACK 60 AUDIO
    TITLE "0:"
    INDEX 01 01:22:13
